<?xml version="1.0" encoding="UTF-8" standalone="no"?><!DOCTYPE svg PUBLIC "-//W3C//DTD SVG 1.1//EN" "http://www.w3.org/Graphics/SVG/1.1/DTD/svg11.dtd"><svg width="100%" height="100%" viewBox="0 0 6588 2084" version="1.1" xmlns="http://www.w3.org/2000/svg" xmlns:xlink="http://www.w3.org/1999/xlink" xml:space="preserve" xmlns:serif="http://www.serif.com/" style="fill-rule:evenodd;clip-rule:evenodd;stroke-linejoin:round;stroke-miterlimit:2;"><rect id="sfonline_horizontal_simple_transparent-negatif" x="4.046" y="0" width="6583.33" height="2083.33" style="fill:none;"/><g id="sfonline_horizontal_simple_transparent-negatif1" serif:id="sfonline_horizontal_simple_transparent-negatif"><g><g><path d="M4531.97,649.832l-124.851,346.026c-23.266,65.055 -47.866,140.114 -130.186,140.114c-19.901,-0 -31.239,-2.668 -42.531,-4.653l1.698,-21.615c2.41,-15.309 13.156,-25.252 27.343,-24.479c1.41,0.106 2.789,0.243 4.153,0.243c55.794,-0 74.423,-77.014 74.423,-83.653c-0,-7.291 -8.003,-24.555 -12.005,-35.862l-114.877,-316.121l43.532,0c0.106,0 0.182,0.076 0.303,0.076c13.217,-0 26.04,9.109 31.512,21.402l84.032,258.78l1.364,0l85.881,-258.916c5.518,-12.232 18.295,-21.266 31.452,-21.266c0.151,-0 0.227,-0.076 0.333,-0.076l38.424,0Zm-408.671,338.69l0,-175.309c0,-79.046 -17.188,-117.545 -71.694,-120.849c-71.057,-0 -102.948,57.112 -102.948,139.447l-0,130.625c-1.152,14.566 -13.187,26.071 -28.041,26.071c-0.076,-0 -0.076,0.015 -0.076,0.015l-34.301,-0l0,-338.69l31.785,0c0.106,0 0.136,0.076 0.288,0.076c15.642,-0 28.314,12.671 28.314,28.359c-0,0.061 0.06,0.061 0.06,0.091l0,25.313l1.304,-0c18.628,-38.53 63.751,-61.796 110.921,-61.796c87.655,-0 126.851,54.475 126.851,145.449l0,174.172c-0.712,15.021 -12.974,27.011 -28.162,27.011c-0.076,-0 -0.076,0.015 -0.106,0.015l-34.195,-0Zm-965.231,-0l0,-201.865c0,-41.849 -10.004,-94.293 -60.462,-94.293c-63.722,-0 -88.989,62.432 -88.989,125.517l0,144.858c-1.334,14.43 -13.262,25.768 -28.011,25.768c-0.075,-0 -0.075,0.015 -0.106,0.015l-34.27,-0l-0,-201.865c-0,-41.849 -10.004,-94.293 -60.463,-94.293c-63.751,-0 -88.988,62.432 -88.988,125.517l-0,141.448c-0.076,0.273 -0.212,0.439 -0.212,0.864c-0,15.627 -12.672,28.314 -28.314,28.314c-0.03,-0 -0.076,0.015 -0.076,0.015l-33.816,-0l0,-338.69l29.86,0c0.106,0 0.182,0.076 0.303,0.076c15.552,-0 28.072,12.52 28.299,28.011l-0,21.083l1.334,0c23.857,-39.196 57.749,-57.127 107.541,-57.127c39.196,-0 78.363,19.931 96.324,65.752c23.236,-48.458 74.362,-65.752 104.889,-65.752c86.381,-0 117.544,55.794 117.544,129.519l0,195.028c-2.849,12.657 -14.081,22.085 -27.556,22.085c-0.045,-0 -0.045,0.015 -0.075,0.015l-34.756,-0Zm-807.262,-132.884c-0.288,100.659 -75.832,139.447 -173.051,140.144l-0.394,0c-31.603,0 -63.054,-8.655 -93.732,-18.568l1.879,-18.264c1.789,-16.325 13.263,-28.663 27.268,-26.374c22.312,7.048 48.791,13.142 73.21,13.217c41.713,-0.075 102.251,-23.221 102.554,-85.941c-0.485,-60.129 -57.249,-80.683 -109.042,-105.586c-52.792,-25.555 -101.872,-53.808 -102.023,-126.654c0.227,-83.32 64.646,-126.988 151.451,-127.519c23.812,0 51.156,3.289 77.318,9.792l-1.152,20.477c-1.698,14.097 -13.672,25.283 -27.965,24.237c-0.228,-0 -0.228,0.212 -0.379,0.212c-13.551,-2.971 -27.405,-4.683 -44.745,-4.683c-0.075,-0 -0.257,-0 -0.409,0.03c-39.939,-0.061 -91.686,14.748 -91.883,71.118c1,53.066 57.385,70.981 108.965,97.355c52.566,26.707 101.979,59.326 102.13,137.007m333.097,-205.806l-124.851,346.026c-23.266,65.055 -47.836,140.114 -130.14,140.114c-19.932,-0 -31.27,-2.668 -42.532,-4.653l1.668,-21.615c2.41,-15.309 13.141,-25.252 27.374,-24.479c1.364,0.106 2.773,0.243 4.153,0.243c55.794,-0 74.392,-77.014 74.392,-83.653c-0,-7.291 -7.973,-24.555 -11.975,-35.862l-114.877,-316.121l43.532,0c0.106,0 0.182,0.076 0.334,0.076c13.217,-0 25.994,9.109 31.481,21.402l84.032,258.78l1.334,0l85.912,-258.916c5.547,-12.232 18.294,-21.266 31.451,-21.266c0.151,-0 0.182,-0.076 0.333,-0.076l38.379,0Zm765.882,50.504l-62.433,0l0,263.692c-1.925,13.762 -13.626,24.479 -27.935,24.479c-0.075,-0 -0.03,0.015 -0.106,0.015l-34.376,-0l-0,-288.186l-51.581,0c-0.075,0 -0.136,-0.076 -0.212,-0.076c-14.233,0 -25.904,-10.488 -27.935,-24.115l0,-26.313l79.728,0l-0,-26.889c-0,-82.365 21.265,-136.158 113.543,-136.158c15.9,0 29.238,1.986 41.834,3.987l-1.076,20.447c-0.864,14.915 -13.263,27.071 -28.193,25.979c-0.151,0 -0.121,0.167 -0.227,0.167c-1.031,-0.045 -2.077,-0.121 -3.077,-0.121c-53.748,-0 -60.387,34.574 -60.387,80.379l0,32.209l89.656,0l-0,23.57c-0.698,14.687 -12.52,26.449 -27.223,26.934m208.428,245.73c73.013,0 105.54,-66.419 105.54,-126.881c0,-64.389 -39.151,-126.821 -105.54,-126.821c-67.056,-0 -106.253,62.432 -106.253,126.821c0,60.462 32.528,126.881 106.253,126.881m-0,-304.191c102.948,-0 171.959,74.392 171.959,177.31c0,96.961 -70.345,177.294 -171.959,177.294c-102.251,0 -172.642,-80.333 -172.642,-177.294c0,-102.918 69.012,-177.31 172.642,-177.31" style="fill:#fff;fill-rule:nonzero;"/><path d="M4594.19,759.285c-0,-37.768 4.888,-73.145 14.664,-106.132c9.776,-32.986 24.213,-61.79 43.311,-86.411c19.097,-24.62 42.742,-44.102 70.934,-58.444c28.191,-14.342 60.703,-21.513 97.534,-21.513c38.195,0 71.729,7.052 100.603,21.155c28.874,14.103 52.973,33.465 72.298,58.085c19.325,24.621 33.876,53.544 43.652,86.77c9.776,33.226 14.664,68.722 14.664,106.49c0,37.289 -4.888,72.308 -14.664,105.055c-9.776,32.748 -24.213,61.432 -43.311,86.053c-19.097,24.62 -42.969,44.102 -71.616,58.444c-28.646,14.342 -61.84,21.513 -99.58,21.513c-37.741,-0 -70.934,-7.171 -99.58,-21.513c-28.647,-14.342 -52.519,-33.824 -71.616,-58.444c-19.098,-24.621 -33.421,-53.305 -42.97,-86.053c-9.549,-32.747 -14.323,-67.766 -14.323,-105.055Zm229.171,229.473c31.829,-0 59.225,-6.335 82.188,-19.004c22.962,-12.668 41.833,-29.52 56.611,-50.555c14.778,-21.035 25.69,-45.417 32.738,-73.145c7.048,-27.728 10.572,-56.651 10.572,-86.769c0,-35.856 -4.206,-68.006 -12.618,-96.451c-8.412,-28.445 -20.575,-52.707 -36.49,-72.786c-15.915,-20.079 -35.239,-35.377 -57.975,-45.894c-22.735,-10.518 -48.198,-15.777 -76.39,-15.777c-31.375,0 -58.543,6.454 -81.506,19.362c-22.963,12.908 -41.833,29.999 -56.611,51.273c-14.778,21.274 -25.69,45.775 -32.738,73.503c-7.048,27.728 -10.572,56.651 -10.572,86.77c-0,30.596 3.524,59.758 10.572,87.486c7.048,27.728 17.96,52.11 32.738,73.145c14.778,21.035 33.648,37.767 56.611,50.197c22.963,12.43 50.586,18.645 82.87,18.645Zm621.046,41.592l0,-535.702l23.736,-0c5.639,-0 11.048,2.24 15.035,6.228c3.988,3.987 6.228,9.396 6.228,15.035l0,493.176c0,5.639 -2.24,11.047 -6.228,15.035c-3.987,3.987 -9.396,6.228 -15.035,6.228l-23.736,-0Zm108.81,-0l-0,-364.278l44.999,0l-0,343.015c-0,5.639 -2.24,11.047 -6.228,15.035c-3.988,3.987 -9.396,6.228 -15.035,6.228l-23.736,-0Zm48.669,-449.327l0,5.372c0,6.203 -2.464,12.153 -6.85,16.539c-4.387,4.386 -10.336,6.851 -16.539,6.851l-3.839,-0c-6.203,-0 -12.152,-2.465 -16.538,-6.851c-4.387,-4.386 -6.851,-10.336 -6.851,-16.539l-0,-5.372c-0,-6.204 2.464,-12.153 6.851,-16.539c4.386,-4.386 10.335,-6.851 16.538,-6.851l3.839,0c6.203,0 12.152,2.465 16.539,6.851c4.386,4.386 6.85,10.335 6.85,16.539Zm56.994,449.327l0.007,-364.278l19.444,0c11.743,0 21.263,9.52 21.263,21.263l-0,43.736l1.428,-0c15,-32.857 42.142,-73.57 117.855,-73.57c89.998,0 124.283,59.999 124.283,139.997l-0,211.589c-0,5.639 -2.241,11.047 -6.228,15.035c-3.988,3.987 -9.396,6.228 -15.036,6.228l-23.735,-0l-0,-221.424c-0,-68.57 -24.286,-112.854 -86.427,-112.854c-82.141,-0 -107.855,72.141 -107.855,132.854l0,180.161c0,5.639 -2.24,11.047 -6.228,15.035c-3.987,3.987 -9.396,6.228 -15.035,6.228l-23.736,-0Zm-560.089,-0l0.006,-364.278l19.444,0c11.743,0 21.263,9.52 21.263,21.263l0,43.736l1.429,-0c14.999,-32.857 42.141,-73.57 117.854,-73.57c89.998,0 124.283,59.999 124.283,139.997l-0,211.589c-0,5.639 -2.24,11.047 -6.228,15.035c-3.988,3.987 -9.396,6.228 -15.035,6.228l-23.736,-0l-0,-221.424c-0,-68.57 -24.285,-112.854 -86.427,-112.854c-82.141,-0 -107.854,72.141 -107.854,132.854l-0,180.161c-0,5.639 -2.241,11.047 -6.228,15.035c-3.988,3.987 -9.396,6.228 -15.036,6.228l-23.735,-0Zm1153.81,-24.151l0,12.722c-31.428,12.857 -72.141,20 -105.712,20c-120.711,-0 -165.71,-81.427 -165.71,-190.71c-0,-111.426 57.951,-190.71 155.516,-190.71c111.728,0 144.147,86.536 142.273,192.45c-0.124,6.205 -5.216,11.155 -11.422,11.104c-48.316,-0.022 -237.082,0.013 -237.082,0.013c-0,77.141 41.427,139.282 119.997,139.282c22.026,0 50.793,-6.099 73.82,-14.208c6.506,-2.289 13.718,-1.281 19.347,2.705c5.628,3.987 8.973,10.455 8.973,17.352Zm-222.137,-183.702l201.943,0c1.94,-66.023 -23.268,-126.425 -94.803,-126.425c-66.427,-0 -107.14,66.427 -107.14,126.425Z" style="fill:#fff;"/><path d="M1754.05,500c-0,-91.986 -74.681,-166.667 -166.667,-166.667l-1083.34,0c-91.986,0 -166.667,74.681 -166.667,166.667l0,1083.34c0,91.986 74.681,166.667 166.667,166.667l1083.34,-0c91.986,-0 166.667,-74.681 166.667,-166.667l-0,-1083.34Z" style="fill:#fff;"/><path d="M1404.48,516.974c-78.818,2.698 -147.633,46.209 -198.851,106.239c-56.71,65.925 -94.424,144.051 -121.638,223.852c-48.602,-39.873 -86.082,-91.464 -164.125,-113.905c-60.293,-17.335 -123.616,-10.209 -181.862,33.191c-27.587,20.6 -46.597,51.716 -55.631,81.059c-23.409,76.08 24.585,143.83 46.403,168.124l47.703,51.066c9.809,10.03 33.495,36.164 21.901,73.602c-12.465,40.772 -61.58,67.086 -111.953,51.619c-22.51,-6.904 -54.829,-23.658 -47.579,-47.219c2.961,-9.671 9.878,-16.948 13.614,-25.194c3.375,-7.208 5.022,-12.562 6.046,-15.772c9.2,-30.008 -3.39,-69.092 -35.557,-79.04c-30.036,-9.214 -60.749,-1.909 -72.661,36.732c-13.503,43.913 7.512,123.617 120.102,158.301c131.903,40.592 243.456,-31.253 259.283,-124.889c9.975,-58.647 -16.533,-102.255 -65.039,-158.287l-39.554,-43.76c-23.935,-23.921 -32.167,-64.707 -7.388,-96.043c20.932,-26.467 50.692,-37.715 99.515,-24.461c71.237,19.314 102.961,68.747 155.922,108.619c-21.832,71.749 -36.151,143.761 -49.073,208.329l-7.942,48.173c-37.852,198.548 -66.768,307.623 -141.878,370.227c-15.15,10.777 -36.774,26.895 -69.369,28.044c-17.128,0.525 -22.648,-11.262 -22.884,-16.409c-0.387,-11.967 9.713,-17.473 16.423,-22.855c10.058,-5.493 25.235,-14.569 24.197,-43.664c-1.093,-34.38 -29.565,-64.181 -70.738,-62.811c-30.825,1.038 -77.823,30.022 -76.038,83.149c1.812,54.884 52.947,96.001 130.064,93.386c41.214,-1.383 133.273,-18.151 223.962,-125.954c105.575,-123.63 135.099,-265.301 157.304,-369.009l24.807,-136.94c13.752,1.661 28.486,2.782 44.507,3.155c131.502,2.781 197.233,-65.301 198.256,-114.859c0.665,-29.98 -19.659,-59.518 -48.132,-58.812c-20.337,0.567 -45.932,14.153 -52.047,42.293c-6.032,27.601 41.823,52.546 4.427,76.826c-26.563,17.183 -74.184,29.275 -141.256,19.466l12.189,-67.404c24.889,-127.809 55.589,-285.003 172.066,-288.849c8.495,-0.401 39.527,0.36 40.247,20.919c0.207,6.821 -1.509,8.619 -9.519,24.294c-8.19,12.231 -11.276,22.69 -10.874,34.643c1.12,32.61 25.927,54.082 61.856,52.837c48.036,-1.619 61.829,-48.368 61.041,-72.413c-1.965,-56.502 -61.497,-92.197 -140.247,-89.596Z" style="fill:#2c5282;fill-rule:nonzero;"/><path d="M2220.35,1236.65l-61.865,0l0,263.662c0,27.986 -14.73,42.716 -41.734,42.716c-15.221,0 -30.441,-4.419 -39.279,-9.329l-0,53.027c8.838,5.401 26.513,9.82 47.626,9.82c63.829,0 95.252,-33.387 95.252,-102.126l-0,-257.77Z" style="fill:#fff;fill-rule:nonzero;"/><path d="M2568.46,1236.65l-61.865,0l0,221.928c0,51.063 -29.459,81.013 -80.522,81.013c-50.572,0 -80.523,-29.95 -80.523,-81.013l0,-221.928l-61.373,0l-0,227.329c-0,81.504 53.027,132.567 141.896,132.567c89.36,0 142.387,-51.063 142.387,-132.567l0,-227.329Z" style="fill:#fff;fill-rule:nonzero;"/><path d="M2918.54,1595.57l0,-358.914l-60.883,0l0,222.419l-17.184,-16.694l-206.216,-211.126l-1.964,0l-0,358.914l60.883,0l-0,-221.927c5.891,4.909 11.783,10.801 17.184,15.711l206.707,211.617l1.473,0Z" style="fill:#fff;fill-rule:nonzero;"/><path d="M3218.04,1590.17l0,-52.045l-167.919,0l0,-101.635l136.005,0l-0,-50.572l-136.005,0l0,-97.216l160.554,0l0,-52.045l-222.418,0l-0,353.513l229.783,0Z" style="fill:#fff;fill-rule:nonzero;"/><path d="M3313.78,1309.81c15.712,-11.784 42.225,-22.586 72.176,-22.586c30.932,0 52.536,13.257 60.883,36.333c3.928,10.311 5.401,22.586 3.928,36.334c-5.892,62.356 -65.302,126.184 -155.644,230.274l237.148,0l-0,-52.536l-125.203,0c56.464,-65.301 109,-121.765 109,-190.013c0,-68.739 -47.626,-117.347 -122.747,-117.347c-33.388,0 -61.865,9.329 -79.541,21.604l0,57.937Z" style="fill:#fff;fill-rule:nonzero;"/><path d="M3550.93,1413.41c-0,103.108 54.008,183.139 138.95,183.139c85.432,0 138.95,-80.031 138.95,-183.139c0,-103.108 -53.518,-183.14 -138.95,-183.14c-84.942,0 -138.95,80.032 -138.95,183.14Zm62.355,-0c0,-75.122 28.969,-126.185 76.595,-126.185c48.117,0 77.085,51.063 77.085,126.185c0,75.121 -28.968,126.184 -77.085,126.184c-47.626,0 -76.595,-51.063 -76.595,-126.184Z" style="fill:#fff;fill-rule:nonzero;"/><path d="M3847.49,1309.81c15.711,-11.784 42.225,-22.586 72.175,-22.586c30.933,0 52.536,13.257 60.883,36.333c3.928,10.311 5.401,22.586 3.928,36.334c-5.892,62.356 -65.302,126.184 -155.644,230.274l237.148,0l0,-52.536l-125.202,0c56.464,-65.301 109,-121.765 109,-190.013c-0,-68.739 -47.626,-117.347 -122.748,-117.347c-33.387,0 -61.865,9.329 -79.54,21.604l-0,57.937Z" style="fill:#fff;fill-rule:nonzero;"/><path d="M4217.7,1333.87c0,31.424 -32.896,51.554 -75.121,51.554l-15.221,0l0,47.135l11.784,0c54.009,0 84.45,21.604 84.45,57.937c0,30.933 -26.022,51.554 -65.301,51.554c-40.753,0 -66.775,-11.293 -83.469,-19.639l0,54.99c19.149,9.329 45.171,19.149 88.378,19.149c72.176,0 124.221,-38.788 124.221,-99.671c-0,-46.153 -30.932,-77.085 -66.775,-88.378c32.897,-12.275 60.883,-41.734 60.883,-81.996c0,-56.954 -45.171,-96.234 -118.329,-96.234c-33.878,0 -65.301,8.838 -82.486,16.694l0,54.991c16.203,-7.856 42.716,-17.185 73.158,-17.185c38.297,0 63.828,17.676 63.828,49.099Z" style="fill:#fff;fill-rule:nonzero;"/></g></g></g></svg>
